# xmcd
#
# Track frame offsets:
#	150
#	16083
#	31963
#	47730
#	63210
#	83993
#	101108
#	118131
#	141890
#	155728
#
# Disc length: 2249 seconds
#
# Revision: 1
# Processed by: cddbd v1.4PL0 Copyright (c) Steve Scherf et al.
# Submitted via: EasyCDDAExtractor 6.0.0.1
#
DISCID=8208c70a
DTITLE=Frank Paul - Country With An Attitude
DYEAR=1997
DGENRE=Country
TTITLE0=Country With An Attitude
TTITLE1=Runnin' With My Heart
TTITLE2=Married In Vegas
TTITLE3=I'm Tryin
TTITLE4=Ol' Man Crowley
TTITLE5=It Ain't You
TTITLE6=Gotta Get Back Home
TTITLE7=Angels In The Sky
TTITLE8=Downtown Saturday Night, Again
TTITLE9=I'm The One
EXTD=
EXTT0=
EXTT1=
EXTT2=
EXTT3=
EXTT4=
EXTT5=
EXTT6=
EXTT7=
EXTT8=
EXTT9=
PLAYORDER=
